<?xml version="1.0" encoding="iso-8859-1"?>
<!-- Generator: Adobe Illustrator 19.0.0, SVG Export Plug-In . SVG Version: 6.00 Build 0)  -->
<svg version="1.1" id="Layer_1" xmlns="http://www.w3.org/2000/svg" xmlns:xlink="http://www.w3.org/1999/xlink" x="0px" y="0px"
	 viewBox="0 0 292.895 292.895" style="enable-background:new 0 0 292.895 292.895;" xml:space="preserve">
<g>
	<g>
		<g id="XMLID_26_">
			<g>
				<path style="fill:#94C949;" d="M181.484,189.277c-8.363,3.136-17.36,4.91-26.8,4.91c-10.2,0-19.925-2.027-28.827-5.67
					c-0.063-1.647,0.063-2.914,0.602-3.833c3.136-5.322,6.621-10.612,11.024-13.115c3.865-2.217,9.598-3.326,17.011-3.326
					c0.729,0,2.883,2.503,4.055,3.865c2.186,2.534,4.657,5.417,8.236,7.444c2.439,1.394,4.688,2.313,6.652,3.136
					c3.865,1.584,4.973,2.154,5.924,3.77C179.932,187.471,180.692,188.39,181.484,189.277z"/>
				<path style="fill:#94C949;" d="M130.799,78.626c-0.285,4.245-3.295,11.943-7.508,19.133c-2.503,4.277-9.63,9.82-15.427,13.146
					c-5.385,3.073-13.4,6.177-18.722,6.367c-1.204-0.887-3.358-3.928-4.657-5.765c-1.299-1.806-2.598-3.643-4.023-5.322
					c3.421-18.5,13.78-34.592,28.32-45.648c2.914,1.235,3.896,1.869,4.72,3.326c2.376,4.023,6.621,6.906,10.739,9.693
					C126.333,74.951,129.754,77.263,130.799,78.626z"/>
				<path style="fill:#A3D661;" d="M228.938,106.312c-1.964,1.457-3.96,2.756-5.86,3.833c-5.385,3.073-13.4,6.177-18.722,6.399
					c-1.204-0.887-3.358-3.928-4.688-5.797c-2.661-3.801-5.449-7.729-9.503-10.042c-2.534-1.457-3.39-2.914-5.449-6.874
					c-0.729-1.362-1.457-2.788-2.376-4.308c-0.95-1.679-1.964-3.136-2.914-4.53c-2.376-3.485-3.199-4.847-3.199-7.729
					c0-2.788-0.317-5.385-0.602-7.698c-0.475-4.055-0.729-6.621,0.222-8.236c2.313-3.928,4.815-7.824,7.729-10.58
					C206.922,60.316,224.344,81.128,228.938,106.312z"/>
				<path style="fill:#92C1CA;" d="M229.951,124.97c-1.711,23.347-14.255,43.779-32.787,56.26c-1.584-1.109-3.136-2.249-3.548-2.914
					c-3.865-6.557-9.408-8.806-13.843-10.644c-1.679-0.697-3.263-1.33-4.752-2.186c-1.109-0.634-2.534-2.312-3.928-3.928
					c-3.295-3.801-8.268-9.567-16.599-9.567c-10.517,0-18.753,1.806-25.247,5.512c-7.729,4.403-12.766,11.753-17.011,19.038
					c-0.697,1.172-1.204,2.344-1.616,3.516c-16.092-11.467-27.401-29.017-30.506-49.228c2.408,1.616,5.227,2.693,8.521,2.693
					c9.218,0,20.559-4.593,27.465-8.553c2.598-1.489,15.744-9.313,21.446-19.07c2.914-4.973,9.725-17.676,9.725-27.877
					c0-8.616-7.603-13.748-13.717-17.898c-2.059-1.362-5.132-3.453-5.797-4.403c-1.014-1.742-2.154-3.168-3.358-4.372
					c9.282-4.023,19.514-6.304,30.284-6.304c3.928,0,7.793,0.38,11.562,0.982c-1.679,2.312-3.231,4.72-4.657,7.159
					c-3.738,6.399-2.946,12.988-2.312,18.31c0.253,2.027,0.475,3.96,0.475,5.765c0,7.983,3.199,12.671,6.019,16.821
					c0.76,1.109,1.552,2.249,2.313,3.58c0.76,1.267,1.394,2.471,1.996,3.611c2.344,4.498,5.005,9.598,11.848,13.495
					c0.95,0.602,3.009,3.516,4.245,5.29c3.801,5.385,8.997,12.735,17.676,12.735C212.497,132.795,222.951,128.74,229.951,124.97z"/>
				<path style="fill:#92C1CA;" d="M229.951,124.97c-1.711,23.347-14.255,43.779-32.787,56.26c-1.584-1.109-3.136-2.249-3.548-2.914
					c-3.865-6.557-9.408-8.806-13.843-10.644c-1.679-0.697-3.263-1.33-4.752-2.186c-1.109-0.634-2.534-2.312-3.928-3.928
					c-3.295-3.801-8.268-9.567-16.599-9.567c-10.517,0-18.753,1.806-25.247,5.512c-7.729,4.403-12.766,11.753-17.011,19.038
					c-0.697,1.172-1.204,2.344-1.616,3.516c-16.092-11.467-27.401-29.017-30.506-49.228c2.408,1.616,5.227,2.693,8.521,2.693
					c9.218,0,20.559-4.593,27.465-8.553c2.598-1.489,15.744-9.313,21.446-19.07c2.914-4.973,9.725-17.676,9.725-27.877
					c0-8.616-7.603-13.748-13.717-17.898c-2.059-1.362-5.132-3.453-5.797-4.403c-1.014-1.742-2.154-3.168-3.358-4.372
					c9.282-4.023,19.514-6.304,30.284-6.304c3.928,0,7.793,0.38,11.562,0.982c-1.679,2.312-3.231,4.72-4.657,7.159
					c-3.738,6.399-2.946,12.988-2.312,18.31c0.253,2.027,0.475,3.96,0.475,5.765c0,7.983,3.199,12.671,6.019,16.821
					c0.76,1.109,1.552,2.249,2.313,3.58c0.76,1.267,1.394,2.471,1.996,3.611c2.344,4.498,5.005,9.598,11.848,13.495
					c0.95,0.602,3.009,3.516,4.245,5.29c3.801,5.385,8.997,12.735,17.676,12.735C212.497,132.795,222.951,128.74,229.951,124.97z"/>
				<path style="fill:#EAEEEF;" d="M40.961,119.807c0,62.247,51.287,112.869,114.326,112.869c39.756,0,75.869-19.989,96.745-52.807
					l5.924,5.86c-22.555,34.117-61.329,55.088-102.668,55.088c-67.569,0-122.53-54.296-122.53-121.01
					c0-40.801,21.193-79.1,55.753-101.37l5.955,5.86C61.203,44.888,40.961,80.558,40.961,119.807z"/>
				<path style="fill:#454D5B;" d="M200.998,276.645h-95.161c3.104-8.268,11.119-14.128,20.527-14.128h54.106
					C189.847,262.516,197.893,268.377,200.998,276.645z"/>
				<path style="fill:#2D213F;" d="M274.206,178.791c2.629,2.598,3.168,6.621,1.299,9.82c-17.518,29.714-45.521,51.445-77.738,61.74
					c12.449,6.272,21.034,19.038,21.034,33.769v0.634c0,4.498-3.675,8.141-8.236,8.141H96.27c-4.562,0-8.236-3.643-8.236-8.141
					v-0.634c0-15.269,9.218-28.447,22.428-34.434c-54.708-18.437-94.179-69.692-94.179-129.88
					c0-48.657,26.546-94.115,69.311-118.697c3.231-1.869,7.318-1.33,9.979,1.267l18.183,17.993l12.925,12.735
					c8.838-2.788,18.247-4.308,28.003-4.308c50.716,0,91.993,40.738,91.993,90.821c0,9.662-1.552,18.943-4.372,27.655l13.717,13.527
					L274.206,178.791z M257.955,185.729l-5.924-5.86c-20.876,32.818-56.989,52.807-96.745,52.807
					c-63.039,0-114.326-50.621-114.326-112.869c0-39.249,20.242-74.918,53.504-95.509l-5.955-5.86
					c-34.561,22.27-55.753,60.568-55.753,101.37c0,66.714,54.961,121.01,122.53,121.01
					C196.626,240.817,235.4,219.846,257.955,185.729z M240.025,167.989l-4.72-4.657c-15.681,28.067-45.933,47.105-80.62,47.105
					c-50.716,0-91.993-40.738-91.993-90.821c0-34.244,19.292-64.116,47.707-79.575l-3.928-3.896
					c-30.379,17.296-49.038,48.816-49.038,83.662c0,53.282,43.906,96.618,97.853,96.618
					C190.576,216.425,222.507,197.988,240.025,167.989z M223.077,110.145c1.901-1.077,3.896-2.376,5.86-3.833
					c-4.593-25.184-22.016-45.996-45.363-55.563c-2.914,2.756-5.417,6.652-7.729,10.58c-0.95,1.616-0.697,4.181-0.222,8.236
					c0.285,2.312,0.602,4.91,0.602,7.698c0,2.883,0.824,4.245,3.199,7.729c0.95,1.394,1.964,2.851,2.914,4.53
					c0.919,1.521,1.647,2.946,2.376,4.308c2.059,3.96,2.914,5.417,5.449,6.874c4.055,2.312,6.842,6.241,9.503,10.042
					c1.33,1.869,3.485,4.91,4.688,5.797C209.678,116.322,217.692,113.218,223.077,110.145z M197.165,181.23
					c18.532-12.481,31.076-32.913,32.787-56.26c-7.001,3.77-17.455,7.824-26.103,7.824c-8.68,0-13.875-7.349-17.676-12.735
					c-1.235-1.774-3.295-4.688-4.245-5.29c-6.842-3.896-9.503-8.997-11.848-13.495c-0.602-1.14-1.235-2.344-1.996-3.611
					c-0.76-1.33-1.552-2.471-2.312-3.58c-2.819-4.15-6.019-8.838-6.019-16.821c0-1.806-0.222-3.738-0.475-5.765
					c-0.634-5.322-1.426-11.911,2.312-18.31c1.426-2.439,2.978-4.847,4.657-7.159c-3.77-0.602-7.634-0.982-11.562-0.982
					c-10.771,0-21.002,2.281-30.284,6.304c1.204,1.204,2.344,2.629,3.358,4.372c0.665,0.95,3.738,3.041,5.797,4.403
					c6.114,4.15,13.717,9.282,13.717,17.898c0,10.2-6.811,22.903-9.725,27.877c-5.702,9.757-18.848,17.581-21.446,19.07
					c-6.906,3.96-18.247,8.553-27.465,8.553c-3.295,0-6.114-1.077-8.521-2.693c3.104,20.211,14.413,37.76,30.506,49.228
					c0.412-1.172,0.919-2.344,1.616-3.516c4.245-7.286,9.282-14.635,17.011-19.038c6.494-3.706,14.73-5.512,25.247-5.512
					c8.331,0,13.305,5.765,16.599,9.567c1.394,1.616,2.819,3.295,3.928,3.928c1.489,0.855,3.073,1.489,4.752,2.186
					c4.435,1.837,9.979,4.086,13.843,10.644C194.029,178.981,195.581,180.122,197.165,181.23z M105.837,276.645h95.161
					c-3.104-8.268-11.151-14.128-20.527-14.128h-54.106C116.956,262.516,108.942,268.377,105.837,276.645z M181.484,189.277
					c-0.792-0.887-1.552-1.806-2.122-2.819c-0.95-1.616-2.059-2.186-5.924-3.77c-1.964-0.824-4.213-1.742-6.652-3.136
					c-3.58-2.027-6.05-4.91-8.236-7.444c-1.172-1.362-3.326-3.865-4.055-3.865c-7.413,0-13.146,1.109-17.011,3.326
					c-4.403,2.503-7.888,7.793-11.024,13.115c-0.539,0.919-0.665,2.186-0.602,3.833c8.902,3.643,18.627,5.67,28.827,5.67
					C164.125,194.187,173.121,192.413,181.484,189.277z M123.292,97.759c4.213-7.191,7.223-14.889,7.508-19.133
					c-1.045-1.362-4.467-3.675-6.557-5.068c-4.118-2.788-8.363-5.67-10.739-9.693c-0.824-1.457-1.806-2.091-4.72-3.326
					c-14.54,11.056-24.899,27.148-28.32,45.648c1.426,1.679,2.724,3.516,4.023,5.322c1.299,1.837,3.453,4.878,4.657,5.765
					c5.322-0.19,13.336-3.295,18.722-6.367C113.662,107.579,120.789,102.036,123.292,97.759z"/>
			</g>
		</g>
		<path style="fill:#A3D661;" d="M124.242,73.557c-3.428-2.322-6.88-4.749-9.332-7.805c-7.733,11.518-12.247,25.38-12.247,40.294
			c0,2.461,0.127,4.891,0.364,7.289c1.733-0.776,3.383-1.603,4.837-2.433c5.797-3.326,12.925-8.87,15.427-13.146
			c4.213-7.191,7.223-14.889,7.508-19.133C129.754,77.263,126.333,74.951,124.242,73.557z"/>
		<path style="fill:#AAE1E9;" d="M229.951,124.97c-7.001,3.77-17.455,7.824-26.103,7.824c-8.68,0-13.875-7.349-17.676-12.735
			c-1.235-1.774-3.295-4.688-4.245-5.29c-6.842-3.896-9.503-8.997-11.848-13.495c-0.602-1.14-1.235-2.344-1.996-3.611
			c-0.76-1.33-1.552-2.471-2.313-3.58c-2.819-4.15-6.019-8.838-6.019-16.821c0-1.806-0.222-3.738-0.475-5.765
			c-0.634-5.322-1.426-11.911,2.312-18.31c1.426-2.439,2.978-4.847,4.657-7.159c-3.77-0.602-7.634-0.982-11.562-0.982
			c-8.48,0-16.618,1.432-24.227,3.998c-1.593,1.248-3.136,2.556-4.619,3.934c0.675,0.827,1.324,1.717,1.923,2.746
			c0.665,0.95,3.738,3.041,5.797,4.403c6.114,4.15,13.717,9.282,13.717,17.898c0,10.2-6.811,22.903-9.725,27.877
			c-5.702,9.757-18.848,17.581-21.446,19.07c-2.648,1.517-5.949,3.123-9.532,4.533c3.972,11.604,10.793,21.88,19.653,29.983
			c0.963-0.706,1.964-1.378,3.025-1.983c6.494-3.706,14.73-5.512,25.247-5.512c8.331,0,13.305,5.765,16.599,9.567
			c1.394,1.616,2.819,3.295,3.928,3.928c1.489,0.855,3.073,1.489,4.752,2.186c3.957,1.641,8.791,3.63,12.532,8.692
			c6.849-1.673,13.311-4.321,19.238-7.79C222,156.728,228.735,141.598,229.951,124.97z"/>
		<path style="fill:#A3D661;" d="M163.963,177.6c-2.138-1.72-3.858-3.69-5.414-5.493c-1.172-1.362-3.326-3.865-4.055-3.865
			c-5.369,0-9.827,0.602-13.362,1.764C148.14,173.732,155.825,176.349,163.963,177.6z"/>
	</g>
</g>
<g>
</g>
<g>
</g>
<g>
</g>
<g>
</g>
<g>
</g>
<g>
</g>
<g>
</g>
<g>
</g>
<g>
</g>
<g>
</g>
<g>
</g>
<g>
</g>
<g>
</g>
<g>
</g>
<g>
</g>
</svg>
